# Blender 3.4.1
# www.blender.org
mtllib BulletAk.mtl
o mesh_762x51mm
v -0.089259 0.198972 -0.010741
v -0.084081 -0.000014 -0.015918
v -0.089259 0.198972 0.010741
v -0.084081 -0.000014 0.015918
v -0.110741 0.198972 -0.010741
v -0.115918 -0.000014 -0.015918
v -0.110741 0.198972 0.010741
v -0.115918 -0.000014 0.015918
v -0.100000 -0.000014 -0.023391
v -0.100000 0.198972 0.015783
v -0.100000 -0.000014 0.023391
v -0.100000 0.198972 -0.015783
v -0.123391 -0.000014 -0.000000
v -0.084217 0.198972 -0.000000
v -0.115783 0.198972 -0.000000
v -0.076609 -0.000014 -0.000000
v -0.100000 -0.000014 -0.000000
v -0.100000 0.198972 -0.000000
v -0.084081 0.026803 -0.015918
v -0.115918 0.026803 0.015918
v -0.084081 0.026803 0.015918
v -0.115918 0.026803 -0.015918
v -0.100000 0.026803 -0.023391
v -0.100000 0.026803 0.023391
v -0.076609 0.026803 -0.000000
v -0.123391 0.026803 -0.000000
v -0.113425 0.023415 0.013425
v -0.112732 0.019121 0.012732
v -0.086575 0.023415 -0.013425
v -0.087268 0.019121 -0.012732
v -0.086575 0.023415 0.013425
v -0.087268 0.019121 0.012732
v -0.113425 0.023415 -0.013425
v -0.112732 0.019121 -0.012732
v -0.100000 0.019121 -0.018709
v -0.100000 0.023415 -0.019727
v -0.100000 0.019121 0.018709
v -0.100000 0.023415 0.019727
v -0.081291 0.019121 -0.000000
v -0.080273 0.023415 -0.000000
v -0.118709 0.019121 -0.000000
v -0.119727 0.023415 -0.000000
v -0.083967 0.010090 -0.016033
v -0.083497 0.006417 -0.016503
v -0.083967 0.010090 0.016033
v -0.083497 0.006417 0.016503
v -0.116033 0.010090 -0.016033
v -0.116503 0.006417 -0.016503
v -0.100000 0.006417 -0.024250
v -0.100000 0.010090 -0.023559
v -0.100000 0.006417 0.024250
v -0.100000 0.010090 0.023559
v -0.075750 0.006417 -0.000000
v -0.076441 0.010090 -0.000000
v -0.124249 0.006417 -0.000000
v -0.123559 0.010090 -0.000000
v -0.116033 0.010090 0.016033
v -0.116503 0.006417 0.016503
v -0.090334 0.197936 -0.009665
v -0.090334 0.197936 0.009665
v -0.109665 0.197936 -0.009665
v -0.109665 0.197936 0.009665
v -0.100000 0.197936 0.014203
v -0.100000 0.197936 -0.014203
v -0.085797 0.197936 -0.000000
v -0.114203 0.197936 -0.000000
v -0.097563 0.263551 -0.002437
v -0.097563 0.263551 0.002437
v -0.102437 0.263551 -0.002437
v -0.102437 0.263551 0.002437
v -0.100000 0.263551 0.003581
v -0.100000 0.263551 -0.003581
v -0.096419 0.263551 -0.000000
v -0.103581 0.263551 -0.000000
v -0.100000 0.266118 -0.000000
v -0.082256 0.169318 -0.000000
v -0.084217 0.174663 -0.000000
v -0.110741 0.174663 -0.010741
v -0.112075 0.169318 -0.012075
v -0.100000 0.169318 0.017744
v -0.100000 0.174663 0.015783
v -0.100000 0.169318 -0.017744
v -0.100000 0.174663 -0.015783
v -0.117744 0.169318 -0.000000
v -0.115783 0.174663 -0.000000
v -0.089259 0.174663 0.010741
v -0.087925 0.169318 0.012075
v -0.089259 0.174663 -0.010741
v -0.087925 0.169318 -0.012075
v -0.110741 0.174663 0.010741
v -0.112075 0.169318 0.012075
v -0.121525 0.162029 -0.000000
v -0.123391 0.156443 -0.000000
v -0.076609 0.156443 -0.000000
v -0.078475 0.162029 -0.000000
v -0.100000 0.162029 0.021525
v -0.100000 0.156443 0.023391
v -0.100000 0.162029 -0.021525
v -0.100000 0.156443 -0.023391
v -0.115918 0.156443 -0.015918
v -0.114648 0.162029 -0.014648
v -0.084081 0.156443 0.015918
v -0.085351 0.162029 0.014648
v -0.085351 0.162029 -0.014648
v -0.084081 0.156443 -0.015918
v -0.115918 0.156443 0.015918
v -0.114648 0.162029 0.014648
v -0.104276 0.257533 0.004276
v -0.107402 0.241656 0.007402
v -0.106162 0.249707 0.006162
v -0.106283 0.257533 0.000000
v -0.110877 0.241656 0.000000
v -0.109054 0.249707 0.000000
v -0.100000 0.241656 0.010877
v -0.100000 0.257533 0.006283
v -0.100000 0.249707 0.009054
v -0.095724 0.257533 0.004276
v -0.092598 0.241656 0.007402
v -0.093838 0.249707 0.006162
v -0.089123 0.241656 0.000000
v -0.093717 0.257533 0.000000
v -0.090945 0.249707 0.000000
v -0.107402 0.241656 -0.007402
v -0.104276 0.257533 -0.004276
v -0.106162 0.249707 -0.006162
v -0.092598 0.241656 -0.007402
v -0.095724 0.257533 -0.004276
v -0.093838 0.249707 -0.006162
v -0.100000 0.257533 -0.006283
v -0.100000 0.241656 -0.010877
v -0.100000 0.249707 -0.009054
v -0.123391 0.052655 -0.000000
v -0.123391 0.130591 -0.000000
v -0.115918 0.130591 -0.015918
v -0.115918 0.052655 -0.015918
v -0.115918 0.052655 0.015918
v -0.115918 0.130591 0.015918
v -0.084081 0.052655 -0.015918
v -0.084081 0.130591 -0.015918
v -0.076609 0.130591 -0.000000
v -0.076609 0.052655 -0.000000
v -0.084081 0.130591 0.015918
v -0.084081 0.052655 0.015918
v -0.100000 0.052655 0.023391
v -0.100000 0.130591 0.023391
v -0.100000 0.130591 -0.023391
v -0.100000 0.052655 -0.023391
vn -0.0000 1.0000 -0.0000
vn -0.7824 0.6228 -0.0000
vn -0.5445 0.6381 0.5445
vn -0.0000 0.6228 0.7824
vn -0.7071 -0.0000 -0.7071
vn -0.6991 0.1500 -0.6991
vn -0.0000 0.1540 -0.9881
vn -0.0000 -0.0000 -1.0000
vn 0.6991 0.1500 -0.6991
vn 0.7071 -0.0000 -0.7071
vn -0.0000 -1.0000 -0.0000
vn 0.7405 -0.6721 -0.0000
vn 0.5150 -0.6852 0.5150
vn -0.0000 -0.6721 0.7405
vn -0.0000 -0.0000 1.0000
vn -0.0000 0.1540 0.9881
vn -0.6991 0.1500 0.6991
vn -0.7071 -0.0000 0.7071
vn 0.9881 0.1540 -0.0000
vn 1.0000 -0.0000 -0.0000
vn -0.9830 0.1836 -0.0000
vn -0.5445 0.6381 -0.5445
vn -0.6962 0.1753 -0.6962
vn -0.7405 -0.6721 -0.0000
vn -0.5150 -0.6852 0.5150
vn -0.0000 0.1836 0.9830
vn -0.6962 0.1753 0.6962
vn 0.7824 0.6228 -0.0000
vn 0.5445 0.6381 0.5445
vn 0.5445 0.6381 -0.5445
vn -0.0000 0.6228 -0.7824
vn -0.5150 -0.6852 -0.5150
vn -0.0000 -0.6721 -0.7405
vn 0.9240 0.3825 -0.0000
vn 0.9122 0.4097 -0.0000
vn 0.6495 0.3954 0.6495
vn 0.6564 0.3719 0.6564
vn 0.5150 -0.6852 -0.5150
vn -0.7069 0.0248 0.7069
vn -0.9997 0.0255 -0.0000
vn -0.0000 -0.5423 -0.8402
vn -0.0000 -0.3656 -0.9308
vn 0.6585 -0.3643 -0.6585
vn 0.6035 -0.5211 -0.6035
vn 0.8402 -0.5423 -0.0000
vn 0.9308 -0.3656 -0.0000
vn 0.6585 -0.3643 0.6585
vn 0.6035 -0.5211 0.6035
vn -0.8402 -0.5423 -0.0000
vn -0.9308 -0.3656 -0.0000
vn -0.6585 -0.3643 -0.6585
vn -0.6035 -0.5211 -0.6035
vn 0.9997 0.0255 -0.0000
vn 0.7069 0.0248 0.7069
vn -0.7069 0.0248 -0.7069
vn -0.0000 0.3205 0.9473
vn -0.0000 0.1441 0.9896
vn -0.7005 0.1365 0.7005
vn -0.6716 0.3127 0.6716
vn -0.9473 0.3205 -0.0000
vn -0.9896 0.1441 -0.0000
vn -0.7005 0.1365 -0.7005
vn -0.6716 0.3127 -0.6716
vn 0.9473 0.3205 -0.0000
vn 0.9896 0.1441 -0.0000
vn 0.7005 0.1365 0.7005
vn 0.6716 0.3127 0.6716
vn -0.0000 0.3205 -0.9473
vn -0.0000 0.1441 -0.9896
vn 0.7005 0.1365 -0.7005
vn 0.6716 0.3127 -0.6716
vn -0.0000 0.0255 -0.9997
vn 0.7069 0.0248 -0.7069
vn -0.0000 -0.3656 0.9308
vn -0.0000 -0.5423 0.8402
vn -0.0000 0.0255 0.9997
vn -0.6035 -0.5211 0.6035
vn -0.6585 -0.3643 0.6585
vn -0.7710 0.6368 -0.0000
vn -0.5705 0.5908 0.5705
vn -0.0000 0.6368 0.7710
vn 0.7710 0.6368 -0.0000
vn 0.5705 0.5908 0.5705
vn 0.5705 0.5908 -0.5705
vn -0.0000 0.6368 -0.7710
vn -0.5705 0.5908 -0.5705
vn 0.6564 0.3719 -0.6564
vn 0.6495 0.3954 -0.6495
vn -0.6564 0.3719 0.6564
vn -0.6495 0.3954 0.6495
vn -0.9122 0.4097 -0.0000
vn -0.9240 0.3825 -0.0000
vn -0.0000 0.4097 0.9122
vn -0.0000 0.3825 0.9240
vn -0.9881 0.1540 -0.0000
vn -1.0000 -0.0000 -0.0000
vn 0.7071 -0.0000 0.7071
vn 0.6991 0.1500 0.6991
vn -0.0000 0.1836 -0.9830
vn -0.0000 0.3825 -0.9240
vn -0.0000 0.4097 -0.9122
vn -0.9297 0.3683 -0.0000
vn -0.6605 0.3571 0.6605
vn 0.6962 0.1753 0.6962
vn 0.6962 0.1753 -0.6962
vn -0.6495 0.3954 -0.6495
vn -0.6564 0.3719 -0.6564
vn 0.9830 0.1836 -0.0000
vn 0.7000 0.1412 -0.7000
vn 0.7052 0.0730 -0.7052
vn -0.0000 0.0759 -0.9971
vn -0.0000 0.1459 -0.9893
vn 0.9893 0.1459 -0.0000
vn 0.9971 0.0759 -0.0000
vn -0.7000 0.1412 0.7000
vn -0.7052 0.0730 0.7052
vn -0.0000 0.0759 0.9971
vn -0.0000 0.1459 0.9893
vn 0.6605 0.3571 0.6605
vn 0.9297 0.3683 -0.0000
vn -0.0000 0.3683 0.9297
vn -0.9893 0.1459 -0.0000
vn -0.9971 0.0759 -0.0000
vn -0.7052 0.0730 -0.7052
vn -0.7000 0.1412 -0.7000
vn 0.7000 0.1412 0.7000
vn 0.7052 0.0730 0.7052
vn -0.6605 0.3571 -0.6605
vn -0.0000 0.3683 -0.9297
vn 0.6605 0.3571 -0.6605
vn -0.0000 0.2736 0.9618
vn -0.6818 0.2650 0.6818
vn -0.6818 0.2650 -0.6818
vn -0.0000 0.2736 -0.9618
vn 0.9618 0.2736 -0.0000
vn 0.6818 0.2650 0.6818
vn -0.9618 0.2736 -0.0000
vn 0.6818 0.2650 -0.6818
vt 0.125118 0.900786
vt 0.141236 0.191474
vt 0.125118 0.900786
vt 0.141236 0.191474
vt 0.058242 0.900786
vt 0.042124 0.191474
vt 0.058242 0.900786
vt 0.042124 0.191474
vt 0.091680 0.191474
vt 0.091680 0.900786
vt 0.091680 0.191474
vt 0.091680 0.900786
vt 0.018861 0.191474
vt 0.140816 0.900786
vt 0.042545 0.900786
vt 0.164500 0.191474
vt 0.091680 0.191474
vt 0.091680 0.900786
vt 0.141236 0.696835
vt 0.042124 0.696835
vt 0.141236 0.696835
vt 0.042124 0.696835
vt 0.091680 0.696835
vt 0.091680 0.696835
vt 0.164500 0.696835
vt 0.018861 0.696835
vt 0.049888 0.264412
vt 0.052043 0.120187
vt 0.133473 0.264412
vt 0.131318 0.120187
vt 0.133473 0.264412
vt 0.131318 0.120187
vt 0.049888 0.264412
vt 0.052043 0.120187
vt 0.091680 0.120187
vt 0.091680 0.264412
vt 0.091680 0.120187
vt 0.091680 0.264412
vt 0.149925 0.120187
vt 0.153091 0.264412
vt 0.033435 0.120187
vt 0.030269 0.264412
vt 0.141592 0.222931
vt 0.143055 0.594308
vt 0.141592 0.222931
vt 0.143055 0.594308
vt 0.041768 0.222931
vt 0.040305 0.594308
vt 0.091680 0.594308
vt 0.091680 0.222931
vt 0.091680 0.594308
vt 0.091680 0.222931
vt 0.167172 0.594308
vt 0.165023 0.222931
vt 0.016188 0.594308
vt 0.018337 0.222931
vt 0.041768 0.222931
vt 0.040305 0.594308
vt 0.331178 0.397647
vt 0.331178 0.397647
vt 0.233019 0.397647
vt 0.233019 0.397647
vt 0.282098 0.397647
vt 0.282098 0.397647
vt 0.354217 0.397647
vt 0.209979 0.397647
vt 0.294472 0.901699
vt 0.294472 0.901699
vt 0.269724 0.901699
vt 0.269724 0.901699
vt 0.282098 0.901699
vt 0.282098 0.901699
vt 0.300281 0.901699
vt 0.263915 0.901699
vt 0.282098 0.921425
vt 0.146918 0.718626
vt 0.140816 0.735264
vt 0.058242 0.735264
vt 0.054089 0.718626
vt 0.091680 0.718626
vt 0.091680 0.735264
vt 0.091680 0.718626
vt 0.091680 0.735264
vt 0.036442 0.718626
vt 0.042545 0.735264
vt 0.125118 0.735264
vt 0.129272 0.718626
vt 0.125118 0.735264
vt 0.129272 0.718626
vt 0.058242 0.735264
vt 0.054089 0.718626
vt 0.024670 0.695934
vt 0.018861 0.869953
vt 0.164500 0.869953
vt 0.158690 0.695934
vt 0.091680 0.695934
vt 0.091680 0.869953
vt 0.091680 0.695934
vt 0.091680 0.869953
vt 0.042124 0.869953
vt 0.046078 0.695934
vt 0.141236 0.869953
vt 0.137283 0.695934
vt 0.137283 0.695934
vt 0.141236 0.869953
vt 0.042124 0.869953
vt 0.046078 0.695934
vt 0.260387 0.855475
vt 0.244512 0.733503
vt 0.250809 0.795353
vt 0.250195 0.855475
vt 0.226867 0.733503
vt 0.236122 0.795353
vt 0.282098 0.733503
vt 0.282098 0.855475
vt 0.282098 0.795353
vt 0.303809 0.855475
vt 0.319685 0.733503
vt 0.313387 0.795353
vt 0.337329 0.733503
vt 0.314001 0.855475
vt 0.328075 0.795353
vt 0.244512 0.733503
vt 0.260387 0.855475
vt 0.250809 0.795353
vt 0.319685 0.733503
vt 0.303809 0.855475
vt 0.313387 0.795353
vt 0.282098 0.855475
vt 0.282098 0.733503
vt 0.282098 0.795353
vt 0.018861 0.409489
vt 0.018861 0.544017
vt 0.042124 0.544017
vt 0.042124 0.409488
vt 0.042124 0.409489
vt 0.042124 0.544017
vt 0.141236 0.409488
vt 0.141236 0.544017
vt 0.164500 0.544017
vt 0.164500 0.409489
vt 0.141236 0.544017
vt 0.141236 0.409489
vt 0.091680 0.409489
vt 0.091680 0.544017
vt 0.091680 0.544017
vt 0.091680 0.409488
s 1
usemtl toon_projectiles
f 18/18/1 15/15/2 7/7/3 10/10/4
f 134/134/5 100/100/6 99/99/7 146/146/8
f 146/146/8 99/99/7 105/105/9 139/139/10
f 17/17/11 16/16/12 4/4/13 11/11/14
f 145/145/15 97/97/16 106/106/17 137/137/18
f 139/139/10 105/105/9 94/94/19 140/140/20
f 85/85/21 15/15/2 5/5/22 78/78/23
f 13/13/24 17/17/11 11/11/14 8/8/25
f 81/81/26 10/10/4 7/7/3 90/90/27
f 14/14/28 18/18/1 10/10/4 3/3/29
f 1/1/30 12/12/31 18/18/1 14/14/28
f 6/6/32 9/9/33 17/17/11 13/13/24
f 95/95/34 76/76/35 87/87/36 103/103/37
f 9/9/33 2/2/38 16/16/12 17/17/11
f 12/12/31 5/5/22 15/15/2 18/18/1
f 8/8/25 58/58/39 55/55/40 13/13/24
f 36/36/41 23/23/42 19/19/43 29/29/44
f 40/40/45 25/25/46 21/21/47 31/31/48
f 42/42/49 26/26/50 22/22/51 33/33/52
f 16/16/12 53/53/53 46/46/54 4/4/13
f 13/13/24 55/55/40 48/48/55 6/6/32
f 52/52/56 37/37/57 28/28/58 57/57/59
f 56/56/60 41/41/61 34/34/62 47/47/63
f 54/54/64 39/39/65 32/32/66 45/45/67
f 50/50/68 35/35/69 30/30/70 43/43/71
f 47/47/63 34/34/62 35/35/69 50/50/68
f 45/45/67 32/32/66 37/37/57 52/52/56
f 43/43/71 30/30/70 39/39/65 54/54/64
f 57/57/59 28/28/58 41/41/61 56/56/60
f 9/9/33 49/49/72 44/44/73 2/2/38
f 33/33/52 22/22/51 23/23/42 36/36/41
f 31/31/48 21/21/47 24/24/74 38/38/75
f 29/29/44 19/19/43 25/25/46 40/40/45
f 11/11/14 51/51/76 58/58/39 8/8/25
f 6/6/32 48/48/55 49/49/72 9/9/33
f 4/4/13 46/46/54 51/51/76 11/11/14
f 27/27/77 20/20/78 26/26/50 42/42/49
f 38/38/75 27/27/77 28/28/58 37/37/57
f 42/42/49 33/33/52 34/34/62 41/41/61
f 40/40/45 31/31/48 32/32/66 39/39/65
f 36/36/41 29/29/44 30/30/70 35/35/69
f 33/33/52 36/36/41 35/35/69 34/34/62
f 31/31/48 38/38/75 37/37/57 32/32/66
f 29/29/44 40/40/45 39/39/65 30/30/70
f 27/27/77 42/42/49 41/41/61 28/28/58
f 38/38/75 24/24/74 20/20/78 27/27/77
f 52/52/56 57/57/59 58/58/39 51/51/76
f 56/56/60 47/47/63 48/48/55 55/55/40
f 54/54/64 45/45/67 46/46/54 53/53/53
f 50/50/68 43/43/71 44/44/73 49/49/72
f 47/47/63 50/50/68 49/49/72 48/48/55
f 45/45/67 52/52/56 51/51/76 46/46/54
f 43/43/71 54/54/64 53/53/53 44/44/73
f 57/57/59 56/56/60 55/55/40 58/58/39
f 2/2/38 44/44/73 53/53/53 16/16/12
f 75/75/1 74/74/79 70/70/80 71/71/81
f 73/73/82 75/75/1 71/71/81 68/68/83
f 67/67/84 72/72/85 75/75/1 73/73/82
f 72/72/85 69/69/86 74/74/79 75/75/1
f 104/104/87 89/89/88 76/76/35 95/95/34
f 107/107/89 91/91/90 84/84/91 92/92/92
f 103/103/37 87/87/36 80/80/93 96/96/94
f 137/137/18 106/106/17 93/93/95 133/133/96
f 142/142/97 102/102/98 97/97/16 145/145/15
f 78/78/23 5/5/22 12/12/31 83/83/99
f 90/90/27 7/7/3 15/15/2 85/85/21
f 98/98/100 82/82/101 89/89/88 104/104/87
f 140/140/20 94/94/19 102/102/98 142/142/97
f 74/74/79 111/111/102 108/108/103 70/70/80
f 86/86/104 3/3/29 10/10/4 81/81/26
f 83/83/99 12/12/31 1/1/30 88/88/105
f 96/96/94 80/80/93 91/91/90 107/107/89
f 92/92/92 84/84/91 79/79/106 101/101/107
f 101/101/107 79/79/106 82/82/101 98/98/100
f 77/77/108 14/14/28 3/3/29 86/86/104
f 126/126/109 59/59/110 64/64/111 130/130/112
f 120/120/113 65/65/114 59/59/110 126/126/109
f 109/109/115 62/62/116 63/63/117 114/114/118
f 68/68/83 117/117/119 121/121/120 73/73/82
f 71/71/81 115/115/121 117/117/119 68/68/83
f 112/112/122 66/66/123 62/62/116 109/109/115
f 130/130/112 64/64/111 61/61/124 123/123/125
f 118/118/126 60/60/127 65/65/114 120/120/113
f 69/69/86 124/124/128 111/111/102 74/74/79
f 114/114/118 63/63/117 60/60/127 118/118/126
f 123/123/125 61/61/124 66/66/123 112/112/122
f 72/72/85 129/129/129 124/124/128 69/69/86
f 73/73/82 121/121/120 127/127/130 67/67/84
f 67/67/84 127/127/130 129/129/129 72/72/85
f 81/81/26 90/90/27 91/91/90 80/80/93
f 85/85/21 78/78/23 79/79/106 84/84/91
f 77/77/108 86/86/104 87/87/36 76/76/35
f 83/83/99 88/88/105 89/89/88 82/82/101
f 78/78/23 83/83/99 82/82/101 79/79/106
f 86/86/104 81/81/26 80/80/93 87/87/36
f 88/88/105 77/77/108 76/76/35 89/89/88
f 90/90/27 85/85/21 84/84/91 91/91/90
f 88/88/105 1/1/30 14/14/28 77/77/108
f 107/107/89 92/92/92 93/93/95 106/106/17
f 103/103/37 96/96/94 97/97/16 102/102/98
f 101/101/107 98/98/100 99/99/7 100/100/6
f 95/95/34 103/103/37 102/102/98 94/94/19
f 92/92/92 101/101/107 100/100/6 93/93/95
f 98/98/100 104/104/87 105/105/9 99/99/7
f 104/104/87 95/95/34 94/94/19 105/105/9
f 96/96/94 107/107/89 106/106/17 97/97/16
f 133/133/96 93/93/95 100/100/6 134/134/5
f 109/109/115 114/114/118 116/116/131 110/110/132
f 110/110/132 116/116/131 115/115/121 108/108/103
f 130/130/112 123/123/125 125/125/133 131/131/134
f 131/131/134 125/125/133 124/124/128 129/129/129
f 118/118/126 120/120/113 122/122/135 119/119/136
f 119/119/136 122/122/135 121/121/120 117/117/119
f 112/112/122 109/109/115 110/110/132 113/113/137
f 113/113/137 110/110/132 108/108/103 111/111/102
f 114/114/118 118/118/126 119/119/136 116/116/131
f 116/116/131 119/119/136 117/117/119 115/115/121
f 123/123/125 112/112/122 113/113/137 125/125/133
f 125/125/133 113/113/137 111/111/102 124/124/128
f 120/120/113 126/126/109 128/128/138 122/122/135
f 122/122/135 128/128/138 127/127/130 121/121/120
f 126/126/109 130/130/112 131/131/134 128/128/138
f 128/128/138 131/131/134 129/129/129 127/127/130
f 70/70/80 108/108/103 115/115/121 71/71/81
f 26/26/50 132/132/96 135/135/5 22/22/51
f 132/132/96 133/133/96 134/134/5 135/135/5
f 25/25/46 141/141/20 143/143/97 21/21/47
f 141/141/20 140/140/20 142/142/97 143/143/97
f 21/21/47 143/143/97 144/144/15 24/24/74
f 143/143/97 142/142/97 145/145/15 144/144/15
f 20/20/78 136/136/18 132/132/96 26/26/50
f 136/136/18 137/137/18 133/133/96 132/132/96
f 19/19/43 138/138/10 141/141/20 25/25/46
f 138/138/10 139/139/10 140/140/20 141/141/20
f 24/24/74 144/144/15 136/136/18 20/20/78
f 144/144/15 145/145/15 137/137/18 136/136/18
f 23/23/42 147/147/8 138/138/10 19/19/43
f 147/147/8 146/146/8 139/139/10 138/138/10
f 22/22/51 135/135/5 147/147/8 23/23/42
f 135/135/5 134/134/5 146/146/8 147/147/8
